<mxfile host="app.diagrams.net" modified="2020-10-28T13:02:18.487Z" agent="5.0 (Windows NT 10.0; Win64; x64) AppleWebKit/537.36 (KHTML, like Gecko) Chrome/86.0.4240.111 Safari/537.36" etag="ykUl5oECVmsGgq9kpONT" version="13.8.5" type="github">
  <diagram id="C5RBs43oDa-KdzZeNtuy" name="Page-1">
    <mxGraphModel dx="868" dy="450" grid="1" gridSize="10" guides="1" tooltips="1" connect="1" arrows="1" fold="1" page="1" pageScale="1" pageWidth="827" pageHeight="1169" math="0" shadow="0">
      <root>
        <mxCell id="WIyWlLk6GJQsqaUBKTNV-0" />
        <mxCell id="WIyWlLk6GJQsqaUBKTNV-1" parent="WIyWlLk6GJQsqaUBKTNV-0" />
        <mxCell id="hEzj67ddl7mYfE-CUpkV-21" style="edgeStyle=orthogonalEdgeStyle;rounded=0;orthogonalLoop=1;jettySize=auto;html=1;exitX=0.5;exitY=1;exitDx=0;exitDy=0;entryX=0.5;entryY=0;entryDx=0;entryDy=0;" edge="1" parent="WIyWlLk6GJQsqaUBKTNV-1" source="WIyWlLk6GJQsqaUBKTNV-3" target="hEzj67ddl7mYfE-CUpkV-0">
          <mxGeometry relative="1" as="geometry" />
        </mxCell>
        <mxCell id="WIyWlLk6GJQsqaUBKTNV-3" value="Start" style="rounded=1;whiteSpace=wrap;html=1;fontSize=12;glass=0;strokeWidth=1;shadow=0;" parent="WIyWlLk6GJQsqaUBKTNV-1" vertex="1">
          <mxGeometry x="160" y="80" width="120" height="40" as="geometry" />
        </mxCell>
        <mxCell id="hEzj67ddl7mYfE-CUpkV-64" value="" style="edgeStyle=none;rounded=0;orthogonalLoop=1;jettySize=auto;html=1;exitX=0.5;exitY=1;exitDx=0;exitDy=0;" edge="1" parent="WIyWlLk6GJQsqaUBKTNV-1" source="hEzj67ddl7mYfE-CUpkV-2" target="hEzj67ddl7mYfE-CUpkV-3">
          <mxGeometry relative="1" as="geometry" />
        </mxCell>
        <mxCell id="hEzj67ddl7mYfE-CUpkV-0" value="&lt;p class=&quot;MsoListParagraph&quot; style=&quot;text-indent: -18.0pt ; line-height: normal ; background: #f4f8fa&quot;&gt;&lt;span style=&quot;font-stretch: normal ; font-size: 7pt ; line-height: normal ; font-family: &amp;#34;times new roman&amp;#34;&quot;&gt;&amp;nbsp; &amp;nbsp; &amp;nbsp; &amp;nbsp; &amp;nbsp;&lt;/span&gt;&lt;span lang=&quot;TH&quot; style=&quot;font-size: 14.0pt ; font-family: &amp;#34;cordia new&amp;#34; , &amp;#34;sans-serif&amp;#34;&quot;&gt;เตรียมไข่ไก่&lt;/span&gt;&lt;span lang=&quot;TH&quot;&gt; &lt;/span&gt;3 &lt;span lang=&quot;TH&quot; style=&quot;font-size: 14.0pt ; font-family: &amp;#34;cordia new&amp;#34; , &amp;#34;sans-serif&amp;#34;&quot;&gt;ฟอง&lt;/span&gt;&lt;/p&gt;" style="rounded=0;whiteSpace=wrap;html=1;" vertex="1" parent="WIyWlLk6GJQsqaUBKTNV-1">
          <mxGeometry x="160" y="150" width="120" height="50" as="geometry" />
        </mxCell>
        <mxCell id="hEzj67ddl7mYfE-CUpkV-2" value="&lt;p class=&quot;MsoListParagraph&quot; style=&quot;text-indent: -18.0pt ; line-height: normal ; background: #f4f8fa&quot;&gt;&lt;span lang=&quot;TH&quot; style=&quot;font-size: 14.0pt ; font-family: &amp;#34;cordia new&amp;#34; , &amp;#34;sans-serif&amp;#34;&quot;&gt;&amp;nbsp; &amp;nbsp; &amp;nbsp; &amp;nbsp;เตรียมหมูสับ &lt;/span&gt;100 g&lt;/p&gt;" style="rounded=0;whiteSpace=wrap;html=1;" vertex="1" parent="WIyWlLk6GJQsqaUBKTNV-1">
          <mxGeometry x="160" y="230" width="120" height="60" as="geometry" />
        </mxCell>
        <mxCell id="hEzj67ddl7mYfE-CUpkV-3" value="&lt;p class=&quot;MsoListParagraph&quot; style=&quot;text-indent: -18.0pt ; line-height: normal ; background: #f4f8fa&quot;&gt;&lt;span style=&quot;font-stretch: normal ; font-size: 7pt ; line-height: normal ; font-family: &amp;#34;times new roman&amp;#34;&quot;&gt;&amp;nbsp; &amp;nbsp; &amp;nbsp; &amp;nbsp; &amp;nbsp; &amp;nbsp;&lt;/span&gt;&lt;span lang=&quot;TH&quot; style=&quot;font-size: 14.0pt ; font-family: &amp;#34;cordia new&amp;#34; , &amp;#34;sans-serif&amp;#34;&quot;&gt;ปรุงรส ดว้ยเครืองปรุง&lt;/span&gt;&lt;/p&gt;" style="rounded=0;whiteSpace=wrap;html=1;" vertex="1" parent="WIyWlLk6GJQsqaUBKTNV-1">
          <mxGeometry x="160" y="310" width="120" height="60" as="geometry" />
        </mxCell>
        <mxCell id="hEzj67ddl7mYfE-CUpkV-24" value="" style="edgeStyle=orthogonalEdgeStyle;rounded=0;orthogonalLoop=1;jettySize=auto;html=1;" edge="1" parent="WIyWlLk6GJQsqaUBKTNV-1" source="hEzj67ddl7mYfE-CUpkV-6" target="hEzj67ddl7mYfE-CUpkV-11">
          <mxGeometry relative="1" as="geometry" />
        </mxCell>
        <mxCell id="hEzj67ddl7mYfE-CUpkV-6" value="&lt;p class=&quot;MsoListParagraph&quot; style=&quot;text-indent: -18.0pt ; line-height: normal ; background: #f4f8fa&quot;&gt;&lt;span style=&quot;font-stretch: normal ; font-size: 7pt ; line-height: normal ; font-family: &amp;#34;times new roman&amp;#34;&quot;&gt;&amp;nbsp;&lt;/span&gt;&lt;span lang=&quot;TH&quot; style=&quot;font-size: 14.0pt ; font-family: &amp;#34;cordia new&amp;#34; , &amp;#34;sans-serif&amp;#34;&quot;&gt;ตีไข่ด้วยช้อนส้อม&lt;/span&gt;&lt;/p&gt;" style="rounded=0;whiteSpace=wrap;html=1;" vertex="1" parent="WIyWlLk6GJQsqaUBKTNV-1">
          <mxGeometry x="160" y="390" width="120" height="60" as="geometry" />
        </mxCell>
        <mxCell id="hEzj67ddl7mYfE-CUpkV-9" value="&lt;p class=&quot;MsoListParagraph&quot; style=&quot;text-indent: -18.0pt ; line-height: normal ; background: #f4f8fa&quot;&gt;&lt;span style=&quot;font-stretch: normal ; font-size: 7pt ; line-height: normal ; font-family: &amp;#34;times new roman&amp;#34;&quot;&gt;&amp;nbsp;&amp;nbsp;&lt;/span&gt;&lt;span lang=&quot;TH&quot; style=&quot;font-size: 14.0pt ; font-family: &amp;#34;cordia new&amp;#34; , &amp;#34;sans-serif&amp;#34;&quot;&gt;ผสมหมูสับลงในไข่และตีด้วยช้อนส้อม&lt;/span&gt;&lt;/p&gt;" style="rounded=0;whiteSpace=wrap;html=1;" vertex="1" parent="WIyWlLk6GJQsqaUBKTNV-1">
          <mxGeometry x="160" y="480" width="120" height="60" as="geometry" />
        </mxCell>
        <mxCell id="hEzj67ddl7mYfE-CUpkV-52" style="edgeStyle=none;rounded=0;orthogonalLoop=1;jettySize=auto;html=1;exitX=0.5;exitY=1;exitDx=0;exitDy=0;" edge="1" parent="WIyWlLk6GJQsqaUBKTNV-1" source="hEzj67ddl7mYfE-CUpkV-10" target="hEzj67ddl7mYfE-CUpkV-12">
          <mxGeometry relative="1" as="geometry" />
        </mxCell>
        <mxCell id="hEzj67ddl7mYfE-CUpkV-10" value="&lt;p class=&quot;MsoListParagraph&quot; style=&quot;text-indent: -18.0pt ; line-height: normal ; background: #f4f8fa&quot;&gt;&lt;span style=&quot;font-stretch: normal ; font-size: 7pt ; line-height: normal ; font-family: &amp;#34;times new roman&amp;#34;&quot;&gt;&amp;nbsp;&lt;/span&gt;&lt;span lang=&quot;TH&quot; style=&quot;font-size: 14.0pt ; font-family: &amp;#34;cordia new&amp;#34; , &amp;#34;sans-serif&amp;#34;&quot;&gt;ตั้งกระทะบนเตา&lt;/span&gt;&lt;span lang=&quot;TH&quot;&gt; &lt;/span&gt;&lt;/p&gt;" style="rounded=0;whiteSpace=wrap;html=1;" vertex="1" parent="WIyWlLk6GJQsqaUBKTNV-1">
          <mxGeometry x="160" y="640" width="120" height="60" as="geometry" />
        </mxCell>
        <mxCell id="hEzj67ddl7mYfE-CUpkV-63" style="edgeStyle=none;rounded=0;orthogonalLoop=1;jettySize=auto;html=1;exitX=0.5;exitY=1;exitDx=0;exitDy=0;entryX=0.5;entryY=0;entryDx=0;entryDy=0;" edge="1" parent="WIyWlLk6GJQsqaUBKTNV-1" source="hEzj67ddl7mYfE-CUpkV-11" target="hEzj67ddl7mYfE-CUpkV-10">
          <mxGeometry relative="1" as="geometry" />
        </mxCell>
        <mxCell id="hEzj67ddl7mYfE-CUpkV-11" value="&lt;p class=&quot;MsoListParagraph&quot; style=&quot;text-indent: -18.0pt ; line-height: normal ; background: #f4f8fa&quot;&gt;1&lt;span lang=&quot;TH&quot; style=&quot;font-size: 14.0pt ; font-family: &amp;#34;cordia new&amp;#34; , &amp;#34;sans-serif&amp;#34;&quot;&gt;ปิดแก๊ส และติดไฟ&lt;/span&gt;&lt;span lang=&quot;TH&quot;&gt; &lt;/span&gt;&lt;/p&gt;" style="rounded=0;whiteSpace=wrap;html=1;" vertex="1" parent="WIyWlLk6GJQsqaUBKTNV-1">
          <mxGeometry x="160" y="560" width="120" height="60" as="geometry" />
        </mxCell>
        <mxCell id="hEzj67ddl7mYfE-CUpkV-57" style="edgeStyle=none;rounded=0;orthogonalLoop=1;jettySize=auto;html=1;exitX=0.5;exitY=1;exitDx=0;exitDy=0;entryX=0.5;entryY=0;entryDx=0;entryDy=0;" edge="1" parent="WIyWlLk6GJQsqaUBKTNV-1" source="hEzj67ddl7mYfE-CUpkV-12" target="hEzj67ddl7mYfE-CUpkV-56">
          <mxGeometry relative="1" as="geometry" />
        </mxCell>
        <mxCell id="hEzj67ddl7mYfE-CUpkV-12" value="&lt;p class=&quot;MsoListParagraph&quot; style=&quot;text-indent: -18.0pt ; line-height: normal ; background: #f4f8fa&quot;&gt;&lt;span lang=&quot;TH&quot; style=&quot;font-size: 14.0pt ; font-family: &amp;#34;cordia new&amp;#34; , &amp;#34;sans-serif&amp;#34;&quot;&gt;ใส่น้ำมันพืช&lt;/span&gt;&lt;/p&gt;" style="rounded=0;whiteSpace=wrap;html=1;" vertex="1" parent="WIyWlLk6GJQsqaUBKTNV-1">
          <mxGeometry x="157" y="720" width="120" height="60" as="geometry" />
        </mxCell>
        <mxCell id="hEzj67ddl7mYfE-CUpkV-39" style="edgeStyle=none;rounded=0;orthogonalLoop=1;jettySize=auto;html=1;exitX=0.5;exitY=1;exitDx=0;exitDy=0;entryX=0.5;entryY=0;entryDx=0;entryDy=0;" edge="1" parent="WIyWlLk6GJQsqaUBKTNV-1" source="hEzj67ddl7mYfE-CUpkV-14" target="hEzj67ddl7mYfE-CUpkV-15">
          <mxGeometry relative="1" as="geometry" />
        </mxCell>
        <mxCell id="hEzj67ddl7mYfE-CUpkV-14" value="&lt;p class=&quot;MsoListParagraph&quot; style=&quot;text-indent: -18.0pt ; line-height: normal ; background: #f4f8fa&quot;&gt;&lt;span style=&quot;font-stretch: normal ; font-size: 7pt ; line-height: normal ; font-family: &amp;#34;times new roman&amp;#34;&quot;&gt;&amp;nbsp; &amp;nbsp; &amp;nbsp; &amp;nbsp; &amp;nbsp; &amp;nbsp;&amp;nbsp;&lt;/span&gt;&lt;span lang=&quot;TH&quot; style=&quot;font-size: 14.0pt ; font-family: &amp;#34;cordia new&amp;#34; , &amp;#34;sans-serif&amp;#34;&quot;&gt;นำไข่ที่ปรุงรสแลว้ใส่ลงในกระทะ&lt;/span&gt;&lt;/p&gt;" style="rounded=0;whiteSpace=wrap;html=1;" vertex="1" parent="WIyWlLk6GJQsqaUBKTNV-1">
          <mxGeometry x="480" y="120" width="120" height="60" as="geometry" />
        </mxCell>
        <mxCell id="hEzj67ddl7mYfE-CUpkV-41" style="edgeStyle=orthogonalEdgeStyle;rounded=0;orthogonalLoop=1;jettySize=auto;html=1;exitX=0.5;exitY=1;exitDx=0;exitDy=0;entryX=0.5;entryY=0;entryDx=0;entryDy=0;" edge="1" parent="WIyWlLk6GJQsqaUBKTNV-1" source="hEzj67ddl7mYfE-CUpkV-15" target="hEzj67ddl7mYfE-CUpkV-38">
          <mxGeometry relative="1" as="geometry" />
        </mxCell>
        <mxCell id="hEzj67ddl7mYfE-CUpkV-15" value="&lt;p class=&quot;MsoListParagraph&quot; style=&quot;text-indent: -18.0pt ; line-height: normal ; background: #f4f8fa&quot;&gt;&lt;span lang=&quot;TH&quot; style=&quot;font-size: 14.0pt ; font-family: &amp;#34;cordia new&amp;#34; , &amp;#34;sans-serif&amp;#34;&quot;&gt;ทอด&lt;/span&gt;&lt;/p&gt;" style="rounded=0;whiteSpace=wrap;html=1;" vertex="1" parent="WIyWlLk6GJQsqaUBKTNV-1">
          <mxGeometry x="480" y="210" width="120" height="60" as="geometry" />
        </mxCell>
        <mxCell id="hEzj67ddl7mYfE-CUpkV-49" value="" style="edgeStyle=none;rounded=0;orthogonalLoop=1;jettySize=auto;html=1;" edge="1" parent="WIyWlLk6GJQsqaUBKTNV-1" source="hEzj67ddl7mYfE-CUpkV-16" target="hEzj67ddl7mYfE-CUpkV-40">
          <mxGeometry relative="1" as="geometry" />
        </mxCell>
        <mxCell id="hEzj67ddl7mYfE-CUpkV-16" value="&lt;p class=&quot;MsoListParagraph&quot; style=&quot;text-indent: -18.0pt ; line-height: normal ; background: #f4f8fa&quot;&gt;&lt;span lang=&quot;TH&quot; style=&quot;font-size: 14.0pt ; font-family: &amp;#34;cordia new&amp;#34; , &amp;#34;sans-serif&amp;#34;&quot;&gt;&amp;nbsp; &amp;nbsp; &amp;nbsp; &amp;nbsp;ตักไข่ใส่จานเสริฟ&lt;/span&gt;&lt;/p&gt;" style="rounded=0;whiteSpace=wrap;html=1;" vertex="1" parent="WIyWlLk6GJQsqaUBKTNV-1">
          <mxGeometry x="480" y="430" width="120" height="50" as="geometry" />
        </mxCell>
        <mxCell id="hEzj67ddl7mYfE-CUpkV-61" style="edgeStyle=orthogonalEdgeStyle;rounded=0;orthogonalLoop=1;jettySize=auto;html=1;entryX=1;entryY=0.5;entryDx=0;entryDy=0;exitX=1;exitY=0.5;exitDx=0;exitDy=0;" edge="1" parent="WIyWlLk6GJQsqaUBKTNV-1" source="hEzj67ddl7mYfE-CUpkV-18" target="hEzj67ddl7mYfE-CUpkV-56">
          <mxGeometry relative="1" as="geometry" />
        </mxCell>
        <mxCell id="hEzj67ddl7mYfE-CUpkV-18" value="น้ำมันร้อน" style="rhombus;whiteSpace=wrap;html=1;" vertex="1" parent="WIyWlLk6GJQsqaUBKTNV-1">
          <mxGeometry x="160" y="860" width="120" height="80" as="geometry" />
        </mxCell>
        <mxCell id="hEzj67ddl7mYfE-CUpkV-33" value="No" style="text;html=1;strokeColor=none;fillColor=none;align=center;verticalAlign=middle;whiteSpace=wrap;rounded=0;" vertex="1" parent="WIyWlLk6GJQsqaUBKTNV-1">
          <mxGeometry x="297" y="875" width="40" height="10" as="geometry" />
        </mxCell>
        <mxCell id="hEzj67ddl7mYfE-CUpkV-36" style="edgeStyle=orthogonalEdgeStyle;rounded=0;orthogonalLoop=1;jettySize=auto;html=1;exitX=0.5;exitY=1;exitDx=0;exitDy=0;entryX=0.5;entryY=0;entryDx=0;entryDy=0;" edge="1" parent="WIyWlLk6GJQsqaUBKTNV-1" source="hEzj67ddl7mYfE-CUpkV-18" target="hEzj67ddl7mYfE-CUpkV-14">
          <mxGeometry relative="1" as="geometry" />
        </mxCell>
        <mxCell id="hEzj67ddl7mYfE-CUpkV-35" value="Yes" style="text;html=1;strokeColor=none;fillColor=none;align=center;verticalAlign=middle;whiteSpace=wrap;rounded=0;" vertex="1" parent="WIyWlLk6GJQsqaUBKTNV-1">
          <mxGeometry x="207" y="940" width="40" height="20" as="geometry" />
        </mxCell>
        <mxCell id="hEzj67ddl7mYfE-CUpkV-42" style="edgeStyle=orthogonalEdgeStyle;rounded=0;orthogonalLoop=1;jettySize=auto;html=1;entryX=1;entryY=0.25;entryDx=0;entryDy=0;exitX=1;exitY=0.5;exitDx=0;exitDy=0;" edge="1" parent="WIyWlLk6GJQsqaUBKTNV-1" source="hEzj67ddl7mYfE-CUpkV-38" target="hEzj67ddl7mYfE-CUpkV-15">
          <mxGeometry relative="1" as="geometry">
            <Array as="points">
              <mxPoint x="640" y="340" />
              <mxPoint x="640" y="225" />
            </Array>
          </mxGeometry>
        </mxCell>
        <mxCell id="hEzj67ddl7mYfE-CUpkV-47" value="" style="edgeStyle=none;rounded=0;orthogonalLoop=1;jettySize=auto;html=1;" edge="1" parent="WIyWlLk6GJQsqaUBKTNV-1" source="hEzj67ddl7mYfE-CUpkV-38" target="hEzj67ddl7mYfE-CUpkV-16">
          <mxGeometry relative="1" as="geometry" />
        </mxCell>
        <mxCell id="hEzj67ddl7mYfE-CUpkV-38" value="สุก" style="rhombus;whiteSpace=wrap;html=1;" vertex="1" parent="WIyWlLk6GJQsqaUBKTNV-1">
          <mxGeometry x="480" y="300" width="120" height="80" as="geometry" />
        </mxCell>
        <mxCell id="hEzj67ddl7mYfE-CUpkV-40" value="END" style="rounded=1;whiteSpace=wrap;html=1;fontSize=12;glass=0;strokeWidth=1;shadow=0;" vertex="1" parent="WIyWlLk6GJQsqaUBKTNV-1">
          <mxGeometry x="480" y="520" width="120" height="40" as="geometry" />
        </mxCell>
        <mxCell id="hEzj67ddl7mYfE-CUpkV-43" value="No" style="text;html=1;strokeColor=none;fillColor=none;align=center;verticalAlign=middle;whiteSpace=wrap;rounded=0;" vertex="1" parent="WIyWlLk6GJQsqaUBKTNV-1">
          <mxGeometry x="640" y="320" width="40" height="20" as="geometry" />
        </mxCell>
        <mxCell id="hEzj67ddl7mYfE-CUpkV-50" value="Yes" style="text;html=1;strokeColor=none;fillColor=none;align=center;verticalAlign=middle;whiteSpace=wrap;rounded=0;" vertex="1" parent="WIyWlLk6GJQsqaUBKTNV-1">
          <mxGeometry x="550" y="370" width="40" height="20" as="geometry" />
        </mxCell>
        <mxCell id="hEzj67ddl7mYfE-CUpkV-59" style="edgeStyle=none;rounded=0;orthogonalLoop=1;jettySize=auto;html=1;exitX=0.5;exitY=1;exitDx=0;exitDy=0;" edge="1" parent="WIyWlLk6GJQsqaUBKTNV-1" source="hEzj67ddl7mYfE-CUpkV-56" target="hEzj67ddl7mYfE-CUpkV-18">
          <mxGeometry relative="1" as="geometry" />
        </mxCell>
        <mxCell id="hEzj67ddl7mYfE-CUpkV-56" value="" style="ellipse;whiteSpace=wrap;html=1;aspect=fixed;" vertex="1" parent="WIyWlLk6GJQsqaUBKTNV-1">
          <mxGeometry x="207" y="800" width="20" height="20" as="geometry" />
        </mxCell>
        <mxCell id="hEzj67ddl7mYfE-CUpkV-67" style="edgeStyle=none;rounded=0;orthogonalLoop=1;jettySize=auto;html=1;entryX=0.5;entryY=0;entryDx=0;entryDy=0;" edge="1" parent="WIyWlLk6GJQsqaUBKTNV-1" source="hEzj67ddl7mYfE-CUpkV-2" target="hEzj67ddl7mYfE-CUpkV-2">
          <mxGeometry relative="1" as="geometry" />
        </mxCell>
      </root>
    </mxGraphModel>
  </diagram>
</mxfile>
